# xmcd CD database file
#
# Track frame offsets:
#	150
#	26868
#	64198
#	97002
#	139440
#	168622
#	193954
#	220707
#	250445
#	283122
#
# Disc length: 4179 seconds
#
# Revision: 0
# Processed by: cddbd v1.5.2PL0 Copyright (c) Steve Scherf et al.
# Submitted via: CDex 1.51
#
DISCID=a710510a
DTITLE=The Devin Garramone Band - Love Birds
DYEAR=2005
DGENRE=Jazz
TTITLE0=Blue Suade Org
TTITLE1=Zebras
TTITLE2=Childrens Dreams
TTITLE3=Monks Valor
TTITLE4=Ten To Twelve
TTITLE5=Muscari Alba
TTITLE6=Catharsis
TTITLE7=Sphinx Bravo
TTITLE8=The Chunky Blues
TTITLE9=Rollie
EXTD=YEAR: 2005
EXTT0=
EXTT1=
EXTT2=
EXTT3=
EXTT4=
EXTT5=
EXTT6=
EXTT7=
EXTT8=
EXTT9=
PLAYORDER=
